# xmcd CD database file
#
# Track frame offsets:
#	183
#	14163
#	28203
#	43233
#	58608
#	69558
#	86808
#	101143
#	122008
#	136833
#	151233
#	164703
#	179373
#	190263
#
# Disc length: 2703 seconds
#
# Revision: 0
# Processed by: cddbd v1.5.2PL0 Copyright (c) Steve Scherf et al.
# Submitted via: CDex 1.51
#
DISCID=cd0a8d0e
DTITLE=Louis Armstrong - Louis Armstrong (Silver Collection)
DYEAR=1995
DGENRE=Jazz
TTITLE0=c'est si bon
TTITLE1=georgia on my mind
TTITLE2=blueberry hill
TTITLE3=le vie en rose
TTITLE4=hello dolly
TTITLE5=basin street blues
TTITLE6=swing low, sweet chariot
TTITLE7=jeepers creepers
TTITLE8=whe you're smiling
TTITLE9=down by the river side
TTITLE10=canal street blues
TTITLE11=hotter than that
TTITLE12=potato head blues
TTITLE13=when the saints go marchin' in
EXTD=YEAR: 1995
EXTT0=
EXTT1=
EXTT2=
EXTT3=
EXTT4=
EXTT5=
EXTT6=
EXTT7=
EXTT8=
EXTT9=
EXTT10=
EXTT11=
EXTT12=
EXTT13=
PLAYORDER=
